<?xml version="1.0" standalone="no"?>
<!DOCTYPE svg PUBLIC "-//W3C//DTD SVG 20010904//EN"
 "http://www.w3.org/TR/2001/REC-SVG-20010904/DTD/svg10.dtd">
<svg version="1.0" xmlns="http://www.w3.org/2000/svg"
 width="1200.000000pt" height="1200.000000pt" viewBox="0 0 1200.000000 1200.000000"
 preserveAspectRatio="xMidYMid meet">

<g transform="translate(0.000000,1200.000000) scale(0.100000,-0.100000)"
fill="#000000" stroke="none">
<path d="M0 6000 l0 -6000 6000 0 6000 0 0 6000 0 6000 -6000 0 -6000 0 0
-6000z m8549 4960 c327 -81 577 -328 726 -721 42 -110 100 -341 119 -479 71
-495 32 -1114 -108 -1735 -19 -82 -31 -153 -27 -156 3 -3 74 -27 156 -53 664
-209 1200 -476 1591 -792 50 -41 145 -129 210 -197 540 -559 522 -1144 -52
-1710 -374 -368 -936 -681 -1657 -923 -104 -35 -195 -64 -203 -64 -27 0 -25
-27 10 -186 96 -433 131 -750 130 -1169 0 -378 -25 -583 -102 -850 -150 -521
-425 -815 -847 -907 -101 -22 -379 -17 -510 10 -543 108 -1181 473 -1774 1013
-62 57 -133 121 -156 141 l-43 38 -103 -96 c-571 -530 -1200 -913 -1730 -1053
-193 -51 -289 -65 -464 -64 -176 0 -284 18 -412 69 -395 156 -639 556 -729
1193 -21 151 -29 562 -15 751 23 302 78 655 146 942 29 125 30 138 11 138 -27
0 -407 129 -574 195 -218 87 -571 261 -745 368 -540 335 -868 696 -983 1086
-35 118 -44 310 -19 431 131 652 960 1274 2200 1650 77 23 141 43 143 45 1 1
-16 83 -38 181 -317 1424 -120 2496 520 2819 125 63 254 94 426 102 563 26
1305 -321 2061 -964 67 -57 160 -139 206 -183 l84 -79 114 105 c691 638 1363
1024 1949 1119 123 21 379 13 489 -15z"/>
<path d="M8060 10491 c-474 -101 -1076 -467 -1640 -998 l-85 -80 35 -41 c19
-22 94 -107 165 -189 171 -195 411 -495 574 -718 197 -270 167 -241 258 -249
316 -29 827 -106 1192 -181 165 -34 226 -43 231 -35 22 35 107 505 137 757 25
210 25 748 0 913 -72 479 -237 761 -482 824 -82 22 -275 20 -385 -3z"/>
<path d="M3535 10487 c-167 -44 -278 -153 -368 -361 -46 -108 -90 -273 -114
-432 -14 -95 -18 -182 -18 -424 0 -333 11 -461 66 -780 24 -143 96 -491 102
-496 1 -1 97 18 212 41 363 74 763 135 1122 172 164 17 166 17 189 48 13 16
78 104 145 195 209 282 408 528 648 799 75 84 137 157 139 161 2 4 -61 65
-140 135 -546 488 -1077 807 -1533 922 -122 30 -367 41 -450 20z"/>
<path d="M5909 8972 c-172 -193 -333 -387 -526 -632 l-51 -65 663 0 c441 0
661 3 656 10 -212 276 -469 587 -587 712 l-69 73 -86 -98z"/>
<path d="M5680 7804 c-167 -5 -553 -23 -638 -31 l-74 -6 -97 -146 c-151 -226
-317 -496 -465 -753 -143 -251 -388 -712 -433 -817 l-27 -63 107 -212 c249
-493 606 -1102 874 -1491 l48 -70 105 -6 c345 -21 943 -30 1290 -20 326 10
650 27 655 33 26 35 134 204 238 370 253 405 468 784 660 1165 l122 243 -87
172 c-234 464 -543 997 -841 1449 l-96 146 -88 7 c-310 23 -960 38 -1253 30z
m560 -830 c175 -44 332 -134 461 -263 127 -129 214 -278 261 -451 20 -73 23
-108 23 -255 0 -147 -3 -182 -23 -255 -48 -174 -135 -325 -261 -451 -131 -130
-284 -218 -466 -265 -83 -22 -123 -26 -235 -26 -275 -1 -503 89 -698 276 -138
133 -230 288 -280 476 -21 82 -25 116 -25 245 0 129 4 163 25 245 51 189 143
346 283 478 255 241 597 331 935 246z"/>
<path d="M4120 7674 c-386 -56 -769 -131 -777 -151 -9 -23 145 -463 277 -793
34 -85 64 -159 67 -163 3 -5 28 33 55 85 167 312 329 593 500 871 61 98 109
179 107 181 -2 2 -105 -11 -229 -30z"/>
<path d="M7641 7694 c2 -5 61 -102 130 -214 130 -212 320 -541 452 -785 l76
-139 21 49 c37 86 141 346 177 445 48 130 164 473 161 476 -2 1 -68 16 -148
33 -377 80 -878 157 -869 135z"/>
<path d="M2700 7364 c-717 -225 -1264 -520 -1585 -855 -148 -154 -224 -282
-252 -427 -14 -72 -14 -86 1 -158 72 -356 538 -774 1201 -1077 223 -102 671
-268 779 -289 15 -2 30 34 100 242 124 367 259 711 414 1059 l60 134 -25 56
c-164 361 -317 748 -439 1111 -47 140 -89 246 -96 247 -7 1 -78 -18 -158 -43z"/>
<path d="M9046 7175 c-96 -285 -217 -597 -341 -880 -54 -121 -104 -237 -112
-257 l-16 -38 83 -182 c168 -369 320 -751 436 -1093 26 -77 48 -142 50 -144 5
-6 235 69 414 136 753 282 1319 675 1506 1046 99 195 83 365 -52 569 -65 98
-254 286 -389 386 -224 166 -566 350 -895 482 -161 65 -508 183 -571 195 l-36
7 -77 -227z"/>
<path d="M8287 5418 c-8 -13 -53 -97 -102 -188 -139 -260 -462 -816 -537 -922
-24 -35 -36 -35 195 -3 320 45 810 136 830 154 9 9 -76 260 -173 513 -74 191
-189 468 -196 468 -2 0 -10 -10 -17 -22z"/>
<path d="M3675 5394 c-123 -293 -358 -946 -344 -958 26 -22 1010 -178 1026
-162 2 2 -33 64 -80 138 -166 263 -311 513 -478 822 l-108 199 -16 -39z"/>
<path d="M8700 3973 c-315 -71 -780 -145 -1150 -183 -113 -12 -218 -24 -235
-26 -26 -5 -49 -32 -162 -192 -217 -307 -487 -649 -704 -892 l-102 -115 99
-94 c316 -299 714 -589 1039 -757 286 -148 523 -223 737 -231 224 -10 329 26
446 152 155 166 256 460 293 849 15 163 7 603 -16 786 -29 247 -114 704 -133
721 -4 3 -54 -5 -112 -18z"/>
<path d="M3157 3798 c-76 -347 -112 -605 -127 -906 -29 -599 86 -1078 309
-1285 197 -184 578 -166 1064 49 365 161 846 497 1209 842 l67 64 -131 147
c-243 270 -498 587 -744 923 l-92 125 -133 12 c-379 33 -857 101 -1183 167
-93 19 -177 34 -186 34 -12 0 -24 -36 -53 -172z"/>
<path d="M5340 3711 c0 -7 204 -264 308 -389 161 -193 355 -412 366 -412 20 0
597 707 648 795 4 7 -218 10 -658 10 -365 0 -664 -2 -664 -4z"/>
</g>
</svg>
